<?xml version="1.0" encoding="UTF-8" standalone="no"?>
<!-- Uploaded to: SVG Repo, www.svgrepo.com, Generator: SVG Repo Mixer Tools -->

<svg
   width="800"
   height="800"
   viewBox="0 0 24 24"
   fill="none"
   version="1.1"
   id="svg2"
   sodipodi:docname="check-square-svgrepo-com.svg"
   inkscape:export-filename="check-square.png"
   inkscape:export-xdpi="96"
   inkscape:export-ydpi="96"
   xmlns:inkscape="http://www.inkscape.org/namespaces/inkscape"
   xmlns:sodipodi="http://sodipodi.sourceforge.net/DTD/sodipodi-0.dtd"
   xmlns="http://www.w3.org/2000/svg"
   xmlns:svg="http://www.w3.org/2000/svg">
  <defs
     id="defs2" />
  <sodipodi:namedview
     id="namedview2"
     pagecolor="#ffffff"
     bordercolor="#000000"
     borderopacity="0.25"
     inkscape:showpageshadow="2"
     inkscape:pageopacity="0.0"
     inkscape:pagecheckerboard="0"
     inkscape:deskcolor="#d1d1d1">
    <inkscape:page
       x="0"
       y="0"
       width="24"
       height="24"
       id="page2"
       margin="0"
       bleed="0" />
  </sodipodi:namedview>
  <path
     opacity="0.5"
     d="M 12,22 C 7.28595,22 4.92893,22 3.46447,20.5355 2,19.0711 2,16.714 2,12 2,7.28595 2,4.92893 3.46447,3.46447 4.92893,2 7.28595,2 12,2 16.714,2 19.0711,2 20.5355,3.46447 22,4.92893 22,7.28595 22,12 c 0,4.714 0,7.0711 -1.4645,8.5355 C 19.0711,22 16.714,22 12,22 Z"
     fill="#1C274C"
     id="path1"
     style="opacity:1;fill:#8d92a5;fill-opacity:1" />
  <path
     d="m 17.824535,6.9754158 c 0.423295,0.4856411 0.423295,1.2730398 0,1.7586311 l -7.225926,8.2905021 c -0.423295,0.485658 -1.1094687,0.485658 -1.5328068,0 L 6.1754319,13.708348 c -0.4232803,-0.485657 -0.4232803,-1.272923 0,-1.758581 0.4232802,-0.485658 1.1095698,-0.485658 1.5328501,0 l 2.1239453,2.436744 6.4595437,-7.4110952 c 0.423295,-0.485641 1.109469,-0.485641 1.532764,0 z"
     fill="#1C274C"
     id="path2"
     style="fill:#be0000;fill-opacity:1;stroke-width:1.54799" />
</svg>
